<svg version="1.1" id="Layer_1" xmlns="http://www.w3.org/2000/svg" xmlns:xlink="http://www.w3.org/1999/xlink" x="0px" y="0px"
	 width="100%" viewBox="0 0 400 400" enable-background="new 0 0 400 400" xml:space="preserve">
<path fill="#000000" opacity="1.000000" stroke="none" 
	d="
M220.000000,401.000000 
	C146.666672,401.000000 73.833336,401.000000 1.000000,401.000000 
	C1.000000,267.666656 1.000000,134.333328 1.000000,1.000000 
	C134.333328,1.000000 267.666656,1.000000 401.000000,1.000000 
	C401.000000,134.333328 401.000000,267.666656 401.000000,401.000000 
	C340.833344,401.000000 280.666656,401.000000 220.000000,401.000000 
M308.356293,232.699020 
	C315.246216,236.376175 318.907074,234.400330 319.028168,226.926941 
	C319.057800,225.099106 319.040100,223.270355 319.032379,221.442078 
	C319.022583,219.115326 319.055298,216.786682 318.973724,214.462219 
	C318.745483,207.956665 321.743683,203.803177 328.140930,202.016830 
	C331.907623,200.965012 334.443176,198.938065 333.880157,194.670074 
	C333.282440,190.138763 328.920624,190.242508 326.517395,190.781662 
	C323.512421,191.455826 321.001160,194.330658 318.701996,195.955017 
	C317.842865,194.706985 316.852051,191.703186 315.280243,191.359985 
	C313.059296,190.875031 310.408997,192.356400 307.183746,193.417892 
	C307.113647,205.622864 307.028168,217.827820 307.015564,230.032852 
	C307.014893,230.694992 307.624451,231.357758 308.356293,232.699020 
M243.095825,204.116013 
	C243.061508,211.519531 242.963440,218.923721 243.041870,226.326050 
	C243.059433,227.983780 243.695343,229.634949 243.981216,232.047485 
	C248.612015,235.295975 252.047852,234.961884 254.800217,230.643356 
	C254.836029,221.083862 254.871841,211.524368 254.905975,201.231735 
	C253.025803,188.520004 234.718338,185.390778 226.686111,195.065063 
	C223.385880,190.435120 220.913605,189.798492 214.210037,192.262177 
	C214.136902,204.937134 214.048218,217.612061 214.035431,230.287079 
	C214.034775,230.939041 214.684601,231.591660 215.371140,232.936447 
	C222.842331,236.155441 225.968246,234.216721 225.976425,226.361160 
	C225.981628,221.370438 225.808792,216.371017 226.047256,211.391373 
	C226.294586,206.227097 229.951950,203.135483 233.901337,200.709274 
	C237.530563,198.479752 240.462418,200.864075 243.095825,204.116013 
M371.912384,203.300919 
	C371.131927,201.158813 370.768341,198.722153 369.498901,196.925537 
	C363.984528,189.120895 351.683655,187.308319 342.073761,192.007019 
	C338.033020,193.982697 338.294098,197.069778 339.391083,199.724747 
	C340.571594,202.581924 343.448883,202.195999 346.295898,201.038879 
	C348.987274,199.945007 352.204651,198.751358 354.827759,199.308945 
	C357.067993,199.785141 358.793243,202.684113 360.746277,204.511398 
	C358.858551,205.330780 357.039093,206.459091 355.066620,206.894684 
	C352.336151,207.497696 349.340820,207.117706 346.721283,207.967499 
	C337.336273,211.012024 333.730896,216.721298 335.160492,225.478943 
	C336.242462,232.106903 343.535614,235.877838 351.977051,233.969040 
	C355.423615,233.189682 358.517639,230.851059 360.851227,229.682816 
	C362.861359,231.264496 364.479858,233.325394 366.486267,233.823380 
	C367.702087,234.125137 369.518433,232.007217 371.809784,230.544754 
	C371.833527,221.720306 371.857239,212.895874 371.912384,203.300919 
M272.859985,214.050980 
	C280.521576,214.034073 288.184052,214.072784 295.844055,213.953125 
	C297.369659,213.929306 298.885803,213.299744 300.879700,212.299438 
	C301.542053,201.899689 298.032684,194.487488 291.041656,191.520386 
	C282.781555,188.014648 270.349152,190.313736 266.279144,196.113632 
	C257.766785,208.243927 259.867340,219.761765 266.948608,228.547028 
	C272.033691,234.855743 287.483704,236.608643 296.314301,231.454773 
	C299.230377,229.752838 300.789734,227.889282 298.996185,224.719116 
	C297.351898,221.812897 294.793976,221.310165 291.744904,222.664902 
	C281.222321,227.340118 275.720612,225.004150 272.859985,214.050980 
M180.959869,215.972015 
	C182.168137,215.314224 183.361755,214.119888 184.587036,214.086487 
	C192.065186,213.882538 199.550522,213.942261 207.726181,213.678879 
	C211.640213,209.168671 208.849991,197.524200 202.962799,193.799789 
	C188.271225,184.505493 173.232834,190.760773 169.917297,207.820053 
	C168.198792,216.662277 169.474411,225.018784 177.877167,230.246460 
	C180.972885,232.172440 184.803757,233.214493 188.442490,233.902664 
	C194.447906,235.038437 200.404404,234.301788 205.713486,231.002838 
	C209.562897,228.610931 209.787491,226.429031 206.145081,223.881866 
	C204.618988,222.814651 201.779984,222.479599 199.999329,223.111649 
	C190.043152,226.645706 186.269913,225.548492 180.959869,215.972015 
M69.749077,251.971436 
	C70.853226,251.331955 71.896294,250.301254 73.071625,250.117767 
	C79.710541,249.081421 84.128044,244.689041 88.353836,240.115417 
	C92.355446,235.784454 93.506989,230.537506 91.016090,225.161682 
	C88.135933,218.945801 83.225136,214.837128 76.131432,212.750717 
	C78.911636,225.482422 79.821747,237.235870 71.989914,247.163269 
	C70.897499,243.818161 70.074631,240.354095 68.661102,237.150681 
	C64.734787,228.252716 56.110027,226.130173 48.007687,223.451324 
	C36.431145,219.623810 24.752520,216.046494 17.912901,204.242523 
	C16.751730,212.910294 19.103403,220.959641 23.613731,227.917953 
	C34.156960,244.183517 49.103245,252.913727 69.749077,251.971436 
M163.640030,203.243408 
	C159.605576,202.834091 155.568817,202.446213 151.537354,202.009232 
	C147.787033,201.602737 146.167007,203.154190 145.859573,207.012817 
	C145.526718,211.190308 147.254623,212.295593 151.040588,212.156815 
	C152.251770,212.112427 154.343079,213.112976 154.545502,213.981705 
	C154.837646,215.235489 154.205093,217.471680 153.208954,218.115387 
	C150.173569,220.076782 146.934494,222.114166 143.488174,222.975677 
	C132.776733,225.653305 125.080215,220.061371 121.609955,208.898392 
	C119.189133,201.111237 122.743004,190.681458 130.498917,186.293777 
	C137.358307,182.413239 144.670212,182.680115 151.619720,186.407288 
	C155.315811,188.389618 158.202911,188.424561 160.226852,184.343826 
	C162.345627,180.071884 159.236542,178.771179 156.285263,176.975616 
	C150.551010,173.486908 144.386597,174.070099 138.089569,173.802536 
	C127.669563,173.359787 117.018608,179.758484 112.888626,189.286163 
	C110.067383,195.794647 109.618309,202.469543 109.984520,209.234055 
	C110.523293,219.186096 119.572411,232.033951 131.661072,233.772888 
	C140.208649,235.002457 147.864792,234.114273 154.143051,229.810760 
	C156.225906,231.512970 157.673157,233.568222 159.386948,233.821793 
	C160.771286,234.026611 162.476990,232.059250 164.798981,230.621658 
	C164.864395,224.536819 165.036911,218.450409 164.947601,212.367844 
	C164.906281,209.554703 164.354141,206.749054 163.640030,203.243408 
M48.107952,219.087448 
	C57.151272,222.885818 66.965523,225.475845 72.914017,234.794678 
	C78.505417,216.780106 68.810051,204.022369 58.084206,191.356583 
	C62.835270,194.493408 66.683853,198.119537 70.299919,201.964310 
	C71.605659,203.352661 72.390686,205.244675 73.348839,206.943222 
	C75.541412,210.830017 78.732826,211.935623 82.739380,210.100449 
	C87.515770,207.912735 90.600235,202.461304 89.340508,198.653519 
	C88.320267,195.569626 86.197449,192.523560 86.231606,189.479416 
	C86.331902,180.539505 82.753799,173.386658 76.767311,166.972061 
	C79.412437,164.143921 81.850418,161.537262 84.288399,158.930588 
	C84.195778,158.355026 84.103157,157.779449 84.010536,157.203873 
	C75.570732,156.515717 66.982521,154.512695 58.725601,155.444702 
	C46.047009,156.875824 35.110485,163.108765 27.132610,173.414078 
	C21.227030,181.042542 17.679001,189.596008 20.839384,199.441605 
	C24.936417,212.205170 36.116886,215.675720 48.107952,219.087448 
z"/>
<path fill="#E95623" opacity="1.000000" stroke="none" 
	d="
M47.701378,219.054260 
	C36.116886,215.675720 24.936417,212.205170 20.839384,199.441605 
	C17.679001,189.596008 21.227030,181.042542 27.132610,173.414078 
	C35.110485,163.108765 46.047009,156.875824 58.725601,155.444702 
	C66.982521,154.512695 75.570732,156.515717 84.010536,157.203873 
	C84.103157,157.779449 84.195778,158.355026 84.288399,158.930588 
	C81.850418,161.537262 79.412437,164.143921 76.767311,166.972061 
	C82.753799,173.386658 86.331902,180.539505 86.231606,189.479416 
	C86.197449,192.523560 88.320267,195.569626 89.340508,198.653519 
	C90.600235,202.461304 87.515770,207.912735 82.739380,210.100449 
	C78.732826,211.935623 75.541412,210.830017 73.348839,206.943222 
	C72.390686,205.244675 71.605659,203.352661 70.299919,201.964310 
	C66.683853,198.119537 62.835270,194.493408 58.084206,191.356583 
	C68.810051,204.022369 78.505417,216.780106 72.914017,234.794678 
	C66.965523,225.475845 57.151272,222.885818 47.701378,219.054260 
z"/>
<path fill="#0E2C62" opacity="1.000000" stroke="none" 
	d="
M164.040131,231.055511 
	C162.476990,232.059250 160.771286,234.026611 159.386948,233.821793 
	C157.673157,233.568222 156.225906,231.512970 154.143051,229.810760 
	C147.864792,234.114273 140.208649,235.002457 131.661072,233.772888 
	C119.572411,232.033951 110.523293,219.186096 109.984520,209.234055 
	C109.618309,202.469543 110.067383,195.794647 112.888626,189.286163 
	C117.018608,179.758484 127.669563,173.359787 138.089569,173.802536 
	C144.386597,174.070099 150.551010,173.486908 156.285263,176.975616 
	C159.236542,178.771179 162.345627,180.071884 160.226852,184.343826 
	C158.202911,188.424561 155.315811,188.389618 151.619720,186.407288 
	C144.670212,182.680115 137.358307,182.413239 130.498917,186.293777 
	C122.743004,190.681458 119.189133,201.111237 121.609955,208.898392 
	C125.080215,220.061371 132.776733,225.653305 143.488174,222.975677 
	C146.934494,222.114166 150.173569,220.076782 153.208954,218.115387 
	C154.205093,217.471680 154.837646,215.235489 154.545502,213.981705 
	C154.343079,213.112976 152.251770,212.112427 151.040588,212.156815 
	C147.254623,212.295593 145.526718,211.190308 145.859573,207.012817 
	C146.167007,203.154190 147.787033,201.602737 151.537354,202.009232 
	C155.568817,202.446213 159.605576,202.834091 163.818939,204.064255 
	C164.011932,213.608566 164.026031,222.332047 164.040131,231.055511 
z"/>
<path fill="#E95825" opacity="1.000000" stroke="none" 
	d="
M68.999466,251.836685 
	C49.103245,252.913727 34.156960,244.183517 23.613731,227.917953 
	C19.103403,220.959641 16.751730,212.910294 17.912901,204.242523 
	C24.752520,216.046494 36.431145,219.623810 48.007687,223.451324 
	C56.110027,226.130173 64.734787,228.252716 68.661102,237.150681 
	C70.074631,240.354095 70.897499,243.818161 71.739449,247.655670 
	C70.659142,249.377609 69.829308,250.607147 68.999466,251.836685 
z"/>
<path fill="#0F2D62" opacity="1.000000" stroke="none" 
	d="
M180.852005,216.821838 
	C186.269913,225.548492 190.043152,226.645706 199.999329,223.111649 
	C201.779984,222.479599 204.618988,222.814651 206.145081,223.881866 
	C209.787491,226.429031 209.562897,228.610931 205.713486,231.002838 
	C200.404404,234.301788 194.447906,235.038437 188.442490,233.902664 
	C184.803757,233.214493 180.972885,232.172440 177.877167,230.246460 
	C169.474411,225.018784 168.198792,216.662277 169.917297,207.820053 
	C173.232834,190.760773 188.271225,184.505493 202.962799,193.799789 
	C208.849991,197.524200 211.640213,209.168671 207.128815,213.446213 
	C198.721283,213.152328 190.910965,213.105881 183.101013,213.022430 
	C180.088211,212.990250 178.955429,213.988434 180.852005,216.821838 
M181.832550,206.530167 
	C187.201385,206.530167 192.570221,206.530167 197.956818,206.530167 
	C197.496185,200.943893 195.585907,199.299774 190.929443,199.006744 
	C185.686432,198.676788 183.042480,201.362442 181.832550,206.530167 
z"/>
<path fill="#0F2C62" opacity="1.000000" stroke="none" 
	d="
M271.949799,214.328339 
	C275.720612,225.004150 281.222321,227.340118 291.744904,222.664902 
	C294.793976,221.310165 297.351898,221.812897 298.996185,224.719116 
	C300.789734,227.889282 299.230377,229.752838 296.314301,231.454773 
	C287.483704,236.608643 272.033691,234.855743 266.948608,228.547028 
	C259.867340,219.761765 257.766785,208.243927 266.279144,196.113632 
	C270.349152,190.313736 282.781555,188.014648 291.041656,191.520386 
	C298.032684,194.487488 301.542053,201.899689 300.157776,212.500259 
	C291.855774,212.808624 284.273529,212.846817 276.697327,213.079849 
	C275.103546,213.128876 273.531738,213.893478 271.949799,214.328339 
M282.401733,206.981155 
	C283.559692,206.977005 284.775757,207.195038 285.860687,206.911514 
	C287.165985,206.570419 288.359833,205.802719 289.601898,205.219696 
	C288.984741,203.973190 288.668854,202.041412 287.692444,201.612183 
	C285.050201,200.450729 282.057281,199.116867 279.333069,199.352142 
	C275.746674,199.661880 273.457825,202.406128 272.789978,206.981125 
	C275.956421,206.981125 278.720032,206.981125 282.401733,206.981155 
z"/>
<path fill="#0F2C62" opacity="1.000000" stroke="none" 
	d="
M371.064941,230.976379 
	C369.518433,232.007217 367.702087,234.125137 366.486267,233.823380 
	C364.479858,233.325394 362.861359,231.264496 360.851227,229.682816 
	C358.517639,230.851059 355.423615,233.189682 351.977051,233.969040 
	C343.535614,235.877838 336.242462,232.106903 335.160492,225.478943 
	C333.730896,216.721298 337.336273,211.012024 346.721283,207.967499 
	C349.340820,207.117706 352.336151,207.497696 355.066620,206.894684 
	C357.039093,206.459091 358.858551,205.330780 360.746277,204.511398 
	C358.793243,202.684113 357.067993,199.785141 354.827759,199.308945 
	C352.204651,198.751358 348.987274,199.945007 346.295898,201.038879 
	C343.448883,202.195999 340.571594,202.581924 339.391083,199.724747 
	C338.294098,197.069778 338.033020,193.982697 342.073761,192.007019 
	C351.683655,187.308319 363.984528,189.120895 369.498901,196.925537 
	C370.768341,198.722153 371.131927,201.158813 371.592285,203.968964 
	C371.203125,213.416794 371.134033,222.196594 371.064941,230.976379 
M356.901459,223.466446 
	C358.117767,220.662292 359.334106,217.858124 360.550415,215.053970 
	C357.754333,215.010223 354.920776,214.676331 352.176056,215.030518 
	C350.503754,215.246323 348.429871,216.140732 347.518616,217.426498 
	C346.553619,218.788071 346.063019,221.245270 346.642670,222.722809 
	C347.192566,224.124542 349.337585,225.597717 350.887543,225.722961 
	C352.596558,225.861053 354.426666,224.500061 356.901459,223.466446 
z"/>
<path fill="#0F2D62" opacity="1.000000" stroke="none" 
	d="
M215.093048,192.079758 
	C220.913605,189.798492 223.385880,190.435120 226.686111,195.065063 
	C234.718338,185.390778 253.025803,188.520004 254.545670,201.836853 
	C254.134613,211.984680 254.083862,221.527359 254.033112,231.070053 
	C252.047852,234.961884 248.612015,235.295975 244.050415,231.181458 
	C244.112396,226.500626 244.219360,222.681381 244.070251,218.872147 
	C243.865646,213.645569 243.466873,208.426590 243.151306,203.204346 
	C240.462418,200.864075 237.530563,198.479752 233.901337,200.709274 
	C229.951950,203.135483 226.294586,206.227097 226.047256,211.391373 
	C225.808792,216.371017 225.981628,221.370438 225.976425,226.361160 
	C225.968246,234.216721 222.842331,236.155441 215.292969,232.113007 
	C215.174210,218.219635 215.133636,205.149689 215.093048,192.079758 
z"/>
<path fill="#0F2C62" opacity="1.000000" stroke="none" 
	d="
M307.942230,192.997223 
	C310.408997,192.356400 313.059296,190.875031 315.280243,191.359985 
	C316.852051,191.703186 317.842865,194.706985 318.701996,195.955017 
	C321.001160,194.330658 323.512421,191.455826 326.517395,190.781662 
	C328.920624,190.242508 333.282440,190.138763 333.880157,194.670074 
	C334.443176,198.938065 331.907623,200.965012 328.140930,202.016830 
	C321.743683,203.803177 318.745483,207.956665 318.973724,214.462219 
	C319.055298,216.786682 319.022583,219.115326 319.032379,221.442078 
	C319.040100,223.270355 319.057800,225.099106 319.028168,226.926941 
	C318.907074,234.400330 315.246216,236.376175 308.195587,231.890503 
	C308.003998,218.387054 307.973114,205.692154 307.942230,192.997223 
z"/>
<path fill="#EB5B28" opacity="1.000000" stroke="none" 
	d="
M69.374275,251.904053 
	C69.829308,250.607147 70.659142,249.377609 71.804230,248.047028 
	C79.821747,237.235870 78.911636,225.482422 76.131432,212.750717 
	C83.225136,214.837128 88.135933,218.945801 91.016090,225.161682 
	C93.506989,230.537506 92.355446,235.784454 88.353836,240.115417 
	C84.128044,244.689041 79.710541,249.081421 73.071625,250.117767 
	C71.896294,250.301254 70.853226,251.331955 69.374275,251.904053 
z"/>
<path fill="#C9CFDC" opacity="1.000000" stroke="none" 
	d="
M214.651550,192.170959 
	C215.133636,205.149689 215.174210,218.219635 215.123199,231.766769 
	C214.684601,231.591660 214.034775,230.939041 214.035431,230.287079 
	C214.048218,217.612061 214.136902,204.937134 214.651550,192.170959 
z"/>
<path fill="#7B8BA9" opacity="1.000000" stroke="none" 
	d="
M307.562988,193.207565 
	C307.973114,205.692154 308.003998,218.387054 307.992432,231.551102 
	C307.624451,231.357758 307.014893,230.694992 307.015564,230.032852 
	C307.028168,217.827820 307.113647,205.622864 307.562988,193.207565 
z"/>
<path fill="#93A0B8" opacity="1.000000" stroke="none" 
	d="
M180.905945,216.396927 
	C178.955429,213.988434 180.088211,212.990250 183.101013,213.022430 
	C190.910965,213.105881 198.721283,213.152328 206.782471,213.563812 
	C199.550522,213.942261 192.065186,213.882538 184.587036,214.086487 
	C183.361755,214.119888 182.168137,215.314224 180.905945,216.396927 
z"/>
<path fill="#7B8BA9" opacity="1.000000" stroke="none" 
	d="
M254.416656,230.856705 
	C254.083862,221.527359 254.134613,211.984680 254.546509,202.203430 
	C254.871841,211.524368 254.836029,221.083862 254.416656,230.856705 
z"/>
<path fill="#DAE0E7" opacity="1.000000" stroke="none" 
	d="
M243.123566,203.660187 
	C243.466873,208.426590 243.865646,213.645569 244.070251,218.872147 
	C244.219360,222.681381 244.112396,226.500626 244.083084,230.802277 
	C243.695343,229.634949 243.059433,227.983780 243.041870,226.326050 
	C242.963440,218.923721 243.061508,211.519531 243.123566,203.660187 
z"/>
<path fill="#93A0B8" opacity="1.000000" stroke="none" 
	d="
M272.404907,214.189667 
	C273.531738,213.893478 275.103546,213.128876 276.697327,213.079849 
	C284.273529,212.846817 291.855774,212.808624 299.921082,212.825287 
	C298.885803,213.299744 297.369659,213.929306 295.844055,213.953125 
	C288.184052,214.072784 280.521576,214.034073 272.404907,214.189667 
z"/>
<path fill="#7B8BA9" opacity="1.000000" stroke="none" 
	d="
M164.419556,230.838593 
	C164.026031,222.332047 164.011932,213.608566 164.015717,204.412567 
	C164.354141,206.749054 164.906281,209.554703 164.947601,212.367844 
	C165.036911,218.450409 164.864395,224.536819 164.419556,230.838593 
z"/>
<path fill="#7B8BA9" opacity="1.000000" stroke="none" 
	d="
M371.437378,230.760559 
	C371.134033,222.196594 371.203125,213.416794 371.576599,204.354218 
	C371.857239,212.895874 371.833527,221.720306 371.437378,230.760559 
z"/>
<path fill="#000000" opacity="1.000000" stroke="none" 
	d="
M181.668427,206.189270 
	C183.042480,201.362442 185.686432,198.676788 190.929443,199.006744 
	C195.585907,199.299774 197.496185,200.943893 197.956818,206.530167 
	C192.570221,206.530167 187.201385,206.530167 181.668427,206.189270 
z"/>
<path fill="#000000" opacity="1.000000" stroke="none" 
	d="
M281.942688,206.981140 
	C278.720032,206.981125 275.956421,206.981125 272.789978,206.981125 
	C273.457825,202.406128 275.746674,199.661880 279.333069,199.352142 
	C282.057281,199.116867 285.050201,200.450729 287.692444,201.612183 
	C288.668854,202.041412 288.984741,203.973190 289.601898,205.219696 
	C288.359833,205.802719 287.165985,206.570419 285.860687,206.911514 
	C284.775757,207.195038 283.559692,206.977005 281.942688,206.981140 
z"/>
<path fill="#000000" opacity="1.000000" stroke="none" 
	d="
M356.552734,223.629242 
	C354.426666,224.500061 352.596558,225.861053 350.887543,225.722961 
	C349.337585,225.597717 347.192566,224.124542 346.642670,222.722809 
	C346.063019,221.245270 346.553619,218.788071 347.518616,217.426498 
	C348.429871,216.140732 350.503754,215.246323 352.176056,215.030518 
	C354.920776,214.676331 357.754333,215.010223 360.550415,215.053970 
	C359.334106,217.858124 358.117767,220.662292 356.552734,223.629242 
z"/>
</svg>